<svg xmlns="http://www.w3.org/2000/svg" width="430" height="430" fill="none" viewBox="0 0 430 430"><path stroke="#ed8d8d" stroke-linejoin="round" stroke-width="12" d="M156.564 210.382c-26.402 8.137-56.323 1.754-77.225-19.148s-27.285-50.823-19.148-77.226l40.198 40.198c6.016 6.017 15.769 6.019 21.783.005l29.039-29.039c6.014-6.014 6.012-15.767-.005-21.783l-40.198-40.198c26.403-8.137 56.324-1.754 77.226 19.148s27.285 50.823 19.148 77.225l137.735 137.735c13.637 13.638 13.641 35.744.01 49.376l-1.452 1.452c-13.632 13.632-35.738 13.627-49.376-.01z"/><path stroke="#b8b1b1" stroke-linecap="round" stroke-width="18" d="m311.167 312.752 6.364 6.364"/></svg>